HIERARCHY
ROOT Hips
{
	OFFSET 0.00000 0.00000 0.00000
	CHANNELS 6 Xposition Yposition Zposition Zrotation Yrotation Xrotation 
	JOINT LHipJoint
	{
		OFFSET 0 0 0
		CHANNELS 3 Zrotation Yrotation Xrotation
		JOINT LeftUpLeg
		{
			OFFSET 1.64549 -1.70879 0.84566
			CHANNELS 3 Zrotation Yrotation Xrotation
			JOINT LeftLeg
			{
				OFFSET 2.24963 -6.18082 0.00000
				CHANNELS 3 Zrotation Yrotation Xrotation
				JOINT LeftFoot
				{
					OFFSET 2.71775 -7.46697 0.00000
					CHANNELS 3 Zrotation Yrotation Xrotation
					JOINT LeftToeBase
					{
						OFFSET 0.18768 -0.51564 2.24737
						CHANNELS 3 Zrotation Yrotation Xrotation
						End Site
						{
							OFFSET 0.00000 -0.00000 1.15935
						}
					}
				}
			}
		}
	}
	JOINT RHipJoint
	{
		OFFSET 0 0 0
		CHANNELS 3 Zrotation Yrotation Xrotation
		JOINT RightUpLeg
		{
			OFFSET -1.58830 -1.70879 0.84566
			CHANNELS 3 Zrotation Yrotation Xrotation
			JOINT RightLeg
			{
				OFFSET -2.25006 -6.18201 0.00000
				CHANNELS 3 Zrotation Yrotation Xrotation
				JOINT RightFoot
				{
					OFFSET -2.72829 -7.49593 0.00000
					CHANNELS 3 Zrotation Yrotation Xrotation
					JOINT RightToeBase
					{
						OFFSET -0.21541 -0.59185 2.10643
						CHANNELS 3 Zrotation Yrotation Xrotation
						End Site
						{
							OFFSET -0.00000 -0.00000 1.09838
						}
					}
				}
			}
		}
	}
	JOINT LowerBack
	{
		OFFSET 0 0 0
		CHANNELS 3 Zrotation Yrotation Xrotation
		JOINT Spine
		{
			OFFSET 0.03142 2.10496 -0.11038
			CHANNELS 3 Zrotation Yrotation Xrotation
			JOINT Spine1
			{
				OFFSET -0.01863 2.10897 -0.06956
				CHANNELS 3 Zrotation Yrotation Xrotation
				JOINT Neck
				{
					OFFSET 0 0 0
					CHANNELS 3 Zrotation Yrotation Xrotation
					JOINT Neck1
					{
						OFFSET -0.02267 1.73238 0.00451
						CHANNELS 3 Zrotation Yrotation Xrotation
						JOINT Head
						{
							OFFSET -0.05808 1.54724 -0.61749
							CHANNELS 3 Zrotation Yrotation Xrotation
							End Site
							{
								OFFSET -0.01396 1.71468 -0.21082
							}
						}
					}
				}
				JOINT LeftShoulder
				{
					OFFSET 0 0 0
					CHANNELS 3 Zrotation Yrotation Xrotation
					JOINT LeftArm
					{
						OFFSET 3.44898 0.50298 0.21920
						CHANNELS 3 Zrotation Yrotation Xrotation
						JOINT LeftForeArm
						{
							OFFSET 5.41917 -0.00000 -0.00000
							CHANNELS 3 Zrotation Yrotation Xrotation
							JOINT LeftHand
							{
								OFFSET 2.44373 -0.00000 0.00000
								CHANNELS 3 Zrotation Yrotation Xrotation
								JOINT LeftFingerBase
								{
									OFFSET 0 0 0
									CHANNELS 3 Zrotation Yrotation Xrotation
									JOINT LeftHandIndex1
									{
										OFFSET 0.72750 -0.00000 0.00000
										CHANNELS 3 Zrotation Yrotation Xrotation
										End Site
										{
											OFFSET 0.58653 -0.00000 0.00000
										}
									}
								}
								JOINT LThumb
								{
									OFFSET 0 0 0
									CHANNELS 3 Zrotation Yrotation Xrotation
									End Site
									{
										OFFSET 0.59549 -0.00000 0.59549
									}
								}
							}
						}
					}
				}
				JOINT RightShoulder
				{
					OFFSET 0 0 0
					CHANNELS 3 Zrotation Yrotation Xrotation
					JOINT RightArm
					{
						OFFSET -3.23015 0.55830 0.31051
						CHANNELS 3 Zrotation Yrotation Xrotation
						JOINT RightForeArm
						{
							OFFSET -5.58976 -0.00010 0.00014
							CHANNELS 3 Zrotation Yrotation Xrotation
							JOINT RightHand
							{
								OFFSET -2.48060 -0.00000 0.00000
								CHANNELS 3 Zrotation Yrotation Xrotation
								JOINT RightFingerBase
								{
									OFFSET 0 0 0
									CHANNELS 3 Zrotation Yrotation Xrotation
									JOINT RightHandIndex1
									{
										OFFSET -0.81601 -0.00000 0.00000
										CHANNELS 3 Zrotation Yrotation Xrotation
										End Site
										{
											OFFSET -0.65789 -0.00000 0.00000
										}
									}
								}
								JOINT RThumb
								{
									OFFSET 0 0 0
									CHANNELS 3 Zrotation Yrotation Xrotation
									End Site
									{
										OFFSET -0.66793 -0.00000 0.66793
									}
								}
							}
						}
					}
				}
			}
		}
	}
}
MOTION
Frames: 9
Frame Time: 0.0238095
0.00 0.00 0.00 189.8720 -1.1927 -155.2420 0.0000 0.0000 0.0000 -6.5470 -13.5702 -81.1497 4.4663 12.7563 38.4630 0.1439 20.5841 -30.0971 6.1609 14.5825 45.6240 0.0000 0.0000 0.0000 39.4706 13.8776 -10.8951 -1.2636 -7.1253 20.0872 -2.5192 3.4411 -29.1994 -0.8167 5.7667 -16.1089 8.2275 3.5176 -1.7141 2.3767 5.5272 -5.7790 -2.2286 2.7178 -4.5840 1.0631 1.9329 -12.9545 0.5195 -2.4400 39.4155 -0.8068 -2.2381 16.2906 0.0000 0.0000 0.0000 -73.0679 41.0500 -47.1007 6.6408 -11.3266 -0.6593 -0.0000 -0.0000 58.5811 -21.3831 26.2442 -9.8231 -7.1250 0.0000 -0.0000 -49.1237 49.7659 -7.3801 0.0000 0.0000 0.0000 65.6074 -36.5114 -80.3686 -5.4634 9.3643 -0.4478 0.0000 0.0000 29.7649 31.0455 7.9451 4.7562 7.1250 -0.0000 -0.0000 37.5654 -19.5330 30.1687
0.00 0.00 0.00 189.6540 1.2404 -154.5940 0.0000 0.0000 0.0000 -13.8574 -12.0061 -79.2811 4.5344 12.8395 38.7707 -3.1199 29.9107 -18.0330 5.4344 13.8569 42.6672 0.0000 0.0000 0.0000 39.2434 14.2425 -7.5066 -1.2714 -7.1466 20.1503 -2.4698 3.3008 -28.9284 -0.1695 2.6520 -7.3113 7.6305 4.0063 -2.2146 2.1260 6.1123 -5.9171 -2.1256 3.0311 -4.4135 0.8596 1.4920 -13.9826 0.5692 -2.8851 39.0788 -0.8215 -2.3872 16.3693 0.0000 -0.0000 0.0000 -61.7129 46.4840 -48.4885 6.5398 -11.1595 -0.6396 -0.0000 -0.0000 65.4632 -16.9989 29.3517 -8.5223 -7.1250 0.0000 -0.0000 -48.2496 52.8062 -11.3971 0.0000 -0.0000 0.0000 50.6939 -41.7513 -121.2220 -6.9201 11.7877 -0.7152 0.0000 0.0000 92.1368 19.4119 2.1601 0.7610 7.1250 -0.0000 -0.0000 33.2855 -26.5440 17.9513
0.00 0.00 0.00 190.0960 4.7621 -155.0290 0.0000 0.0000 0.0000 -16.0412 -13.5017 -73.2301 5.3766 13.7957 42.4253 -1.7414 24.2565 -18.9776 1.5861 7.9448 22.5465 0.0000 0.0000 0.0000 37.8645 8.3329 -8.0692 -2.6549 -10.1143 29.3475 -1.2227 11.0509 -20.0881 -0.0375 1.2504 -3.4381 6.7573 4.2162 2.0499 2.2250 6.2428 -3.0276 -1.7707 3.0454 -3.8375 0.9001 0.8800 -17.2747 0.9137 -2.1662 34.5366 -0.3927 -1.5492 14.8967 0.0000 0.0000 0.0000 -29.6392 44.2259 -14.0050 6.7328 -11.4786 -0.6775 -0.0000 -0.0000 73.3887 -21.4679 27.9282 -10.4364 -7.1250 0.0000 -0.0000 -50.5976 50.9755 -9.5602 0.0000 0.0000 0.0000 24.1147 -39.4203 -90.3078 -7.2679 12.3593 -0.7880 0.0000 0.0000 124.1360 19.8514 -2.8336 -1.0225 7.1250 -0.0000 -0.0000 35.1839 -30.8846 14.7810
0.00 0.00 0.00 189.2290 7.4710 -156.4920 0.0000 0.0000 0.0000 -17.2064 -11.3131 -71.1179 6.1381 14.5609 45.5336 -0.5346 19.8601 -23.4753 1.5557 7.8719 22.3256 0.0000 0.0000 0.0000 34.1890 2.1665 -18.8390 -6.5090 -14.9041 46.9919 0.2973 12.8808 -4.4445 -0.0000 -0.0318 0.0873 4.6743 4.4264 6.3515 1.3649 6.4098 -0.6594 -1.7885 3.1327 -3.8844 2.0909 1.0836 -16.6491 1.2098 -2.1639 33.3374 -0.4451 -1.3062 14.2067 -0.0000 -0.0000 0.0000 -14.8453 37.2972 9.5979 6.9286 -11.8016 -0.7170 -0.0000 -0.0000 69.0346 -24.0690 28.3534 -11.9766 -7.1250 0.0000 -0.0000 -52.9675 50.8214 -10.0429 -0.0000 -0.0000 0.0000 15.7145 -31.1864 -77.4333 -7.3003 12.4124 -0.7949 0.0000 0.0000 119.3310 22.5147 -2.2001 -0.9117 7.1250 -0.0000 -0.0000 36.5766 -30.0285 16.6596
0.00 0.00 0.00 188.8310 6.2214 -156.4070 0.0000 0.0000 0.0000 -18.4321 -12.0081 -71.5551 6.7330 15.1029 47.8573 -0.2604 19.0877 -24.8008 1.3585 7.3777 20.8394 0.0000 0.0000 0.0000 32.6544 -4.7078 -33.7466 -12.1477 -18.4524 66.4562 -0.1275 1.4341 7.4310 -1.1231 6.7318 -18.9232 6.1621 3.4778 7.8647 1.3859 5.3773 2.0488 -2.4915 2.7599 -1.8476 1.4861 1.2624 -17.2397 0.6106 -1.2175 32.6449 -0.3967 -0.9665 14.0202 0.0000 0.0000 0.0000 -5.5942 28.6074 30.3719 7.3432 -12.4827 -0.8042 -0.0000 -0.0000 60.4315 -23.8484 29.3819 -12.2373 -7.1250 0.0000 -0.0000 -53.7314 51.5776 -11.4992 0.0000 0.0000 0.0000 8.3278 -22.5719 -71.4004 -6.8735 11.7109 -0.7057 0.0000 0.0000 118.9950 22.7977 -1.5866 -0.6667 7.1250 -0.0000 -0.0000 36.5214 -29.4583 17.2804
0.00 0.00 0.00 188.2140 6.1765 -158.3660 0.0000 0.0000 0.0000 -20.2084 -11.1330 -70.5211 7.5519 15.7795 50.9320 0.1407 17.1628 -25.5502 1.5344 7.8202 22.1693 0.0000 0.0000 0.0000 31.1653 -8.9561 -51.0671 -19.0884 -19.9801 87.3338 0.8475 -35.0243 20.8420 -2.1310 -9.1337 26.2144 7.1299 2.4158 12.7761 1.3520 4.8421 6.0107 -3.1897 2.8671 -0.3725 0.0813 1.0324 -17.8944 0.4472 -0.5828 31.1032 -0.0705 -0.7488 13.4873 -0.0000 -0.0000 0.0000 3.6880 15.6813 45.0076 8.2013 -13.8786 -0.9999 -0.0000 -0.0000 52.0431 -24.6502 31.3193 -13.4165 -7.1250 0.0000 -0.0000 -56.1940 52.7439 -14.3344 -0.0000 -0.0000 0.0000 0.4364 -10.7119 -70.9252 -7.0668 12.0291 -0.7455 0.0000 0.0000 125.3400 22.2624 0.7365 0.3015 7.1250 -0.0000 -0.0000 35.4138 -27.4876 18.6518
0.00 0.00 0.00 186.3160 7.1259 -159.8970 0.0000 0.0000 0.0000 -23.2009 -9.9699 -70.3298 8.1576 16.2339 53.1283 0.3282 16.0073 -25.6497 1.5544 7.8687 22.3161 0.0000 0.0000 0.0000 28.8998 -8.8092 -60.8707 -22.2043 -19.8831 96.4571 -1.3134 -37.5075 32.1436 -2.2740 -9.4149 27.1020 4.8228 1.8550 17.8548 1.0689 4.4782 7.4460 -2.4445 2.7876 -1.7494 -0.5223 1.2330 -18.6566 0.1318 0.1171 31.0862 0.0335 -0.5252 13.6397 -0.0000 -0.0000 0.0000 10.8827 7.1650 54.7499 8.9390 -15.0632 -1.1842 -0.0000 -0.0000 41.9844 -26.1939 31.9936 -14.6084 -7.1250 0.0000 -0.0000 -58.0455 52.8924 -15.3937 -0.0000 -0.0000 0.0000 -3.7289 -3.2678 -59.1755 -7.8952 13.3829 -0.9277 0.0000 0.0000 115.8210 22.5528 -0.0417 -0.0173 7.1250 -0.0000 -0.0000 35.8412 -28.1361 18.2710
0.00 0.00 0.00 184.4800 7.5864 -159.0460 0.0000 0.0000 0.0000 -26.7265 -7.5814 -76.9852 11.2453 18.0530 63.5755 1.2964 10.0971 -27.3117 1.0171 6.4162 17.9969 0.0000 0.0000 0.0000 30.8049 -1.1994 -89.5738 -24.8721 -19.4211 104.3782 1.5587 -48.2920 29.7201 -3.7949 -11.8824 35.3171 2.5405 0.7899 23.5615 0.0662 3.8372 10.7293 -2.2998 2.8833 -1.1995 1.7096 -0.4476 -20.2499 -1.0281 1.4551 33.9843 -0.2934 1.2886 15.3280 0.0000 -0.0000 0.0000 24.7816 -27.8847 30.9222 10.9754 -18.2506 -1.7682 -0.0000 -0.0000 33.7368 -28.7955 35.1224 -17.5485 -7.1250 0.0000 -0.0000 -63.3615 54.3171 -20.6409 0.0000 -0.0000 0.0000 -13.4843 33.0753 -45.7151 -4.8730 8.3701 -0.3568 0.0000 0.0000 94.4602 17.8116 -4.0918 -1.3133 7.1250 -0.0000 -0.0000 34.3254 -32.1862 12.9058
0.00 0.00 0.00 183.7890 5.8920 -159.4530 0.0000 0.0000 0.0000 -29.1995 -5.4677 -77.3376 11.8779 18.3386 65.6013 1.4562 7.3122 -26.4793 0.2979 3.5094 9.7004 0.0000 0.0000 0.0000 30.8601 -1.8336 -92.6137 -23.9454 -19.6226 101.6056 0.9017 -43.6014 27.9575 -3.7947 -11.8820 35.3159 2.3434 0.6401 23.6102 0.2367 3.8040 11.2407 -1.9745 2.9442 -0.6885 1.2823 1.7121 -19.5047 0.8020 -1.1316 35.6934 -0.2950 -0.8734 15.9776 0.0000 0.0000 0.0000 18.0778 -55.5337 8.3080 11.4864 -19.0299 -1.9315 -0.0000 -0.0000 37.1377 -19.0762 35.5227 -11.3611 -7.1250 0.0000 -0.0000 -56.1712 56.6316 -20.3469 0.0000 0.0000 0.0000 6.0754 51.9710 -19.1521 -5.2552 9.0144 -0.4145 0.0000 0.0000 77.6662 16.6750 -1.6206 -0.4854 7.1250 -0.0000 -0.0000 32.7436 -30.1308 14.0667
